# xmcd
#
# Track frame offsets: 
#        150
#        16674
#        31487
#        49925
#        66449
#
# Disc length: 1080 seconds
#
# Revision: 4
# Processed by: cddbd v1.5.2PL0 Copyright (c) Steve Scherf et al.
# Submitted via: ExactAudioCopy v1.0b3
#
DISCID=3c043605
DTITLE=菊地美香＆小清水亜美 - 乙女はDO MY BESTでしょ?
DYEAR=2005
DGENRE=Anime
TTITLE0=乙女はDO MY BESTでしょ?
TTITLE1=HAPPY FRIENDS PROJECT
TTITLE2=星が奏でるものがたり
TTITLE3=乙女はDO MY BESTでしょ? <instrumental>
TTITLE4=HAPPY FRIENDS PROJECT <instrumental>
EXTD=YEAR: 2005
EXTT0=
EXTT1=
EXTT2=
EXTT3=
EXTT4=
PLAYORDER=
